<?xml version="1.0" encoding="iso-8859-1"?>
<!-- Generator: Adobe Illustrator 19.0.0, SVG Export Plug-In . SVG Version: 6.00 Build 0)  -->
<svg xmlns="http://www.w3.org/2000/svg" xmlns:xlink="http://www.w3.org/1999/xlink" version="1.1" id="Layer_1" x="0px" y="0px" viewBox="0 0 425.688 425.688" style="enable-background:new 0 0 425.688 425.688;" xml:space="preserve" width="512" height="512">
<g>
	<g>
		<path style="fill:#454F58;" d="M131.717,244.647c1.98,1.98,4.625,15.082-5.271,24.978L12.107,383.964    c-6.123,6.124-6.123,16.144,0,22.268l7.356,7.355c6.123,6.123,16.143,6.123,22.267,0l114.339-114.34    c9.896-9.896,22.998-7.25,24.978-5.271L131.717,244.647z"/>
		
			<rect x="52.083" y="318.664" transform="matrix(0.7071 -0.7071 0.7071 0.7071 -214.9277 160.3393)" style="fill:#5C6670;" width="68" height="41.892"/>
		<path style="fill:#FF6361;" d="M47.23,348.841l-35.124,35.123c-6.123,6.124-6.123,16.144,0,22.268l7.356,7.355    c6.123,6.123,16.143,6.123,22.267,0l35.123-35.124L47.23,348.841z"/>
	</g>
	<path style="fill:#A77F73;" d="M411.76,99.931c6.295-6.297,8.322-18.03,4.504-26.074l-13.797-29.061   c-3.82-8.043-13.525-17.75-21.57-21.568L351.836,9.43c-8.043-3.819-19.777-1.792-26.072,4.505L122.27,217.427   c-6.296,6.297-6.296,16.6,0,22.896l63.1,63.1c6.297,6.297,16.6,6.297,22.896,0L411.76,99.931z"/>
	<g>
		<path style="fill:#7C5C5B;" d="M274.045,245.198l-15-0.111c0.125-16.81,1.832-36.309,20.627-55.007    c16.688-16.599,32.22-19.211,47.24-21.738c3.03-0.51,6.164-1.037,9.255-1.677l3.041,14.689c-3.366,0.696-6.642,1.247-9.809,1.78    c-13.868,2.332-25.845,4.347-39.148,17.58C275.481,215.409,274.157,230.142,274.045,245.198z"/>
		<path style="fill:#7C5C5B;" d="M232.465,115.349l-1.299-14.943c5.927-0.515,12.191-0.439,18.247-0.366    c18.3,0.226,35.581,0.432,49.261-13.25c17.121-17.12,12.138-38.965,7.742-58.238l-0.17-0.743l14.625-3.334l0.169,0.741    c4.736,20.764,11.223,49.199-11.759,72.182c-18.151,18.15-40.413,17.882-60.05,17.642    C243.274,114.965,237.652,114.898,232.465,115.349z"/>
		<path d="M423.039,70.64l-13.798-29.062c-4.539-9.556-15.576-20.593-25.128-25.126L355.053,2.654    C351.396,0.918,347.104,0,342.642,0c-8.486,0-16.778,3.227-22.182,8.631L116.967,212.123c-9.237,9.237-9.237,24.267,0,33.504    l8.988,8.988c-0.352,2.773-1.514,6.409-4.813,9.707L6.804,378.66c-9.063,9.064-9.063,23.811,0,32.875l7.356,7.355    c4.532,4.531,10.484,6.797,16.436,6.797s11.905-2.266,16.437-6.797l114.339-114.34c3.301-3.302,6.936-4.457,9.711-4.808    l8.984,8.983c4.462,4.462,10.411,6.919,16.751,6.919c6.34,0,12.29-2.457,16.751-6.919l203.495-203.493    C425.579,96.715,428.204,81.521,423.039,70.64z M36.426,408.283c-3.215,3.215-8.445,3.215-11.66,0l-7.355-7.355    c-3.215-3.215-3.215-8.445,0-11.66l29.821-29.82l19.015,19.016L36.426,408.283z M76.852,367.856l-19.015-19.016l37.477-37.476    l19.015,19.015L76.852,367.856z M150.764,293.943l-25.829,25.829l-19.015-19.015l25.829-25.828    c2.742-2.742,4.697-5.618,6.09-8.431l21.355,21.355C156.382,289.247,153.506,291.202,150.764,293.943z M406.456,94.627    L202.963,298.119c-1.629,1.629-3.812,2.526-6.145,2.526c-2.334,0-4.516-0.898-6.145-2.526l-63.1-63.1    c-3.388-3.388-3.388-8.901,0-12.289L331.068,19.237c2.574-2.574,7.116-4.237,11.574-4.237c2.25,0,4.317,0.416,5.978,1.205    l29.061,13.798c6.504,3.087,14.921,11.503,18.011,18.01l13.797,29.06C411.935,82.226,410.49,90.594,406.456,94.627z"/>
	</g>
</g>















</svg>
