<?xml version="1.0" encoding="utf-8"?>
<!-- Generator: Adobe Illustrator 19.0.0, SVG Export Plug-In . SVG Version: 6.00 Build 0)  -->
<svg version="1.1" id="Layer_3" xmlns="http://www.w3.org/2000/svg" xmlns:xlink="http://www.w3.org/1999/xlink" x="0px" y="0px"
	 viewBox="0 0 1000 500" style="enable-background:new 0 0 1000 500;" xml:space="preserve">
<style type="text/css">
	.st0{fill:#C55A28;}
</style>
<g id="XMLID_1_">
	<path id="XMLID_88_" class="st0" d="M435.7,336.1c34.6-0.7,62.8,26.1,63.7,60.7c0.8,33.8-26.6,62.2-60.8,63
		c-34.9,0.8-63.8-26.8-64.2-61.1C374,364.8,401.5,336.8,435.7,336.1z"/>
	<g id="XMLID_90_">
		<path id="XMLID_84_" class="st0" d="M464,280.6c22.6-22,44.8-43.7,67.4-65.7c10,10.1,19.9,20,29.8,29.9
			c47.4,47.5,94.7,94.9,142.2,142.4c5,5,8.2,10.3,5.6,17.4c-0.9,2.4-2.4,4.8-4.2,6.6c-14.7,14.6-29.5,29-44.3,43.4
			c-7.1,6.9-16,7-23,0c-57.3-57.4-114.6-114.8-171.9-172.2C465.1,281.9,464.7,281.4,464,280.6z"/>
		<path id="XMLID_83_" class="st0" d="M421.5,238.2c-8-8.1-15.8-15.9-22.9-23.1c2.5-6,5.9-11.6,7.1-17.6c2.1-10.2-1.8-19-9.2-26.3
			c-18.2-18.1-36.3-36.4-54.4-54.6c-7.6-7.6-15.3-15-23.1-22.7c8.6-8.3,16.8-16.1,25.3-24.3c1.2,1.1,2.3,2.1,3.3,3.1
			c24.3,24.2,48.5,48.5,72.7,72.7c14.2,14.2,28.4,15.2,44.2,3.3c8,7.7,15.9,15.4,24.2,23.4C466.2,194.4,443.8,216.4,421.5,238.2z"/>
		<path id="XMLID_82_" class="st0" d="M498.8,182.4c7.6,7.6,14.8,14.9,22.3,22.5c-22.2,21.8-44.5,43.7-66.8,65.5
			c-7.5-7.6-14.8-14.9-22.3-22.6C454,226.3,476.3,204.4,498.8,182.4z"/>
		<path id="XMLID_80_" class="st0" d="M334,60.4c-7.6,7.3-15.8,15.2-24.1,23.2c-6.3-6.1-12.4-12-18.4-18.1c-2-2.1-1.5-4.7,0.5-6.7
			c5.6-5.6,11.2-11.1,16.9-16.6c2.3-2.2,5.1-2.7,7.5-0.3C322.3,47.8,328,54,334,60.4z"/>
	</g>
</g>
</svg>
