<?xml version="1.0" encoding="utf-8"?>
<!-- Generator: Adobe Illustrator 19.0.0, SVG Export Plug-In . SVG Version: 6.00 Build 0)  -->
<svg version="1.1" id="Layer_2" xmlns="http://www.w3.org/2000/svg" xmlns:xlink="http://www.w3.org/1999/xlink" x="0px" y="0px"
	 viewBox="0 0 1000 500" style="enable-background:new 0 0 1000 500;" xml:space="preserve">
<style type="text/css">
	.st0{fill:#C55A28;}
</style>
<g id="XMLID_49_">
	<path id="XMLID_71_" class="st0" d="M465.2,279.5c21.8-21.2,43.2-42.2,65-63.4c9.7,9.7,19.2,19.3,28.7,28.9
		c45.7,45.8,91.3,91.6,137.1,137.3c4.8,4.8,7.9,9.9,5.4,16.8c-0.8,2.3-2.3,4.6-4,6.3c-14.2,14-28.4,28-42.7,41.9
		c-6.9,6.7-15.5,6.7-22.1,0c-55.3-55.3-110.5-110.7-165.7-166C466.4,280.8,466,280.3,465.2,279.5z"/>
	<path id="XMLID_70_" class="st0" d="M424.3,238.7c-7.7-7.8-15.3-15.4-22.1-22.3c2.4-5.8,5.7-11.2,6.9-17c2-9.8-1.7-18.3-8.9-25.4
		c-17.6-17.5-35-35.1-52.5-52.6c-7.3-7.3-14.7-14.4-22.3-21.9c8.3-8,16.2-15.5,24.4-23.4c1.2,1.1,2.2,2,3.2,3
		c23.4,23.4,46.8,46.8,70.1,70.1c13.7,13.7,27.4,14.7,42.6,3.2c7.7,7.4,15.3,14.8,23.4,22.6C467.4,196.4,445.8,217.6,424.3,238.7z"
		/>
	<path id="XMLID_69_" class="st0" d="M498.8,184.9c7.3,7.4,14.2,14.4,21.5,21.7c-21.4,21-43,42.1-64.4,63.2
		c-7.2-7.3-14.2-14.4-21.5-21.7C455.7,227.1,477.1,206.1,498.8,184.9z"/>
	<path id="XMLID_68_" class="st0" d="M339.9,67.2c-7.4,7.1-15.2,14.6-23.3,22.3c-6-5.9-12-11.6-17.7-17.5c-1.9-2-1.5-4.5,0.5-6.5
		c5.4-5.4,10.8-10.7,16.3-16c2.2-2.1,4.9-2.6,7.2-0.3C328.6,55,334.1,61,339.9,67.2z"/>
</g>
</svg>
