<?xml version="1.0" encoding="utf-8"?>
<!-- Generator: Adobe Illustrator 19.0.0, SVG Export Plug-In . SVG Version: 6.00 Build 0)  -->
<svg version="1.1" id="Layer_3" xmlns="http://www.w3.org/2000/svg" xmlns:xlink="http://www.w3.org/1999/xlink" x="0px" y="0px"
	 viewBox="0 0 1000 500" style="enable-background:new 0 0 1000 500;" xml:space="preserve">
<style type="text/css">
	.st0{fill:#C55A28;}
</style>
<g id="XMLID_73_">
	<path id="XMLID_77_" class="st0" d="M719.3,282.5c21.8-21.2,43.2-42.2,65-63.4c9.7,9.7,19.2,19.3,28.7,28.9
		c45.7,45.8,91.3,91.6,137.1,137.3c4.8,4.8,7.9,9.9,5.4,16.8c-0.8,2.3-2.3,4.6-4,6.3c-14.2,14-28.4,28-42.7,41.9
		c-6.9,6.7-15.5,6.7-22.1,0C831.4,395,776.2,339.6,721,284.3C720.4,283.8,720,283.3,719.3,282.5z"/>
	<path id="XMLID_76_" class="st0" d="M678.3,241.6c-7.7-7.8-15.3-15.4-22.1-22.3c2.4-5.8,5.7-11.2,6.9-17c2-9.8-1.7-18.3-8.9-25.4
		c-17.6-17.5-35-35.1-52.5-52.6c-7.3-7.3-14.7-14.4-22.3-21.9c8.3-8,16.2-15.5,24.4-23.4c1.2,1.1,2.2,2,3.2,3
		c23.4,23.4,46.8,46.8,70.1,70.1c13.7,13.7,27.4,14.7,42.6,3.2c7.7,7.4,15.3,14.8,23.4,22.6C721.4,199.4,699.9,220.5,678.3,241.6z"
		/>
	<path id="XMLID_75_" class="st0" d="M752.8,187.8c7.3,7.4,14.2,14.4,21.5,21.7c-21.4,21-43,42.1-64.4,63.2
		c-7.2-7.3-14.2-14.4-21.5-21.7C709.7,230.1,731.2,209.1,752.8,187.8z"/>
	<path id="XMLID_74_" class="st0" d="M594,70.1c-7.4,7.1-15.2,14.6-23.3,22.3c-6-5.9-12-11.6-17.7-17.5c-1.9-2-1.5-4.5,0.5-6.5
		c5.4-5.4,10.8-10.7,16.3-16c2.2-2.1,4.9-2.6,7.2-0.3C582.7,58,588.2,64,594,70.1z"/>
</g>
<path id="XMLID_88_" class="st0" d="M185.8,337.4c34.6-0.7,62.8,26.1,63.7,60.7c0.8,33.8-26.6,62.2-60.8,63
	c-34.9,0.8-63.8-26.8-64.2-61.1C124.1,366.1,151.6,338,185.8,337.4z"/>
<g id="XMLID_90_">
	<path id="XMLID_84_" class="st0" d="M214,281.8c22.6-22,44.8-43.7,67.4-65.7c10,10.1,19.9,20,29.8,29.9
		c47.4,47.5,94.7,94.9,142.2,142.4c5,5,8.2,10.3,5.6,17.4c-0.9,2.4-2.4,4.8-4.2,6.6c-14.7,14.6-29.5,29-44.3,43.4
		c-7.1,6.9-16,7-23,0C330.2,398.5,273,341.1,215.7,283.7C215.2,283.2,214.8,282.7,214,281.8z"/>
	<path id="XMLID_83_" class="st0" d="M171.6,239.5c-8-8.1-15.8-15.9-22.9-23.1c2.5-6,5.9-11.6,7.1-17.6c2.1-10.2-1.8-19-9.2-26.3
		c-18.2-18.1-36.3-36.4-54.4-54.6c-7.6-7.6-15.3-15-23.1-22.7C77.6,87,85.7,79.1,94.3,71c1.2,1.1,2.3,2.1,3.3,3.1
		c24.3,24.2,48.5,48.5,72.7,72.7c14.2,14.2,28.4,15.2,44.2,3.3c8,7.7,15.9,15.4,24.2,23.4C216.2,195.7,193.9,217.6,171.6,239.5z"/>
	<path id="XMLID_82_" class="st0" d="M248.8,183.7c7.6,7.6,14.8,14.9,22.3,22.5c-22.2,21.8-44.5,43.7-66.8,65.5
		c-7.5-7.6-14.8-14.9-22.3-22.6C204.1,227.5,226.4,205.7,248.8,183.7z"/>
	<path id="XMLID_80_" class="st0" d="M84.1,61.6C76.4,69,68.3,76.8,59.9,84.8c-6.3-6.1-12.4-12-18.4-18.1C39.5,64.6,40,62,42,60
		c5.6-5.6,11.2-11.1,16.9-16.6c2.3-2.2,5.1-2.7,7.5-0.3C72.3,49,78.1,55.3,84.1,61.6z"/>
</g>
</svg>
