<?xml version="1.0" encoding="utf-8"?>
<!-- Generator: Adobe Illustrator 19.0.0, SVG Export Plug-In . SVG Version: 6.00 Build 0)  -->
<svg version="1.1" id="Layer_2" xmlns="http://www.w3.org/2000/svg" xmlns:xlink="http://www.w3.org/1999/xlink" x="0px" y="0px"
	 viewBox="0 0 1000 500" style="enable-background:new 0 0 1000 500;" xml:space="preserve">
<style type="text/css">
	.st0{fill:#C55A28;}
</style>
<path id="XMLID_95_" class="st0" d="M185.8,337.4c34.6-0.7,62.8,26.1,63.7,60.7c0.8,33.8-26.6,62.2-60.8,63
	c-34.9,0.8-63.8-26.8-64.2-61.1C124.1,366.1,151.6,338,185.8,337.4z"/>
<g id="XMLID_89_">
	<path id="XMLID_94_" class="st0" d="M214,281.8c22.6-22,44.8-43.7,67.4-65.7c10,10.1,19.9,20,29.8,29.9
		c47.4,47.5,94.7,94.9,142.2,142.4c5,5,8.2,10.3,5.6,17.4c-0.9,2.4-2.4,4.8-4.2,6.6c-14.7,14.6-29.5,29-44.3,43.4
		c-7.1,6.9-16,7-23,0C330.2,398.5,273,341.1,215.7,283.7C215.2,283.2,214.8,282.7,214,281.8z"/>
	<path id="XMLID_93_" class="st0" d="M171.6,239.5c-8-8.1-15.8-15.9-22.9-23.1c2.5-6,5.9-11.6,7.1-17.6c2.1-10.2-1.8-19-9.2-26.3
		c-18.2-18.1-36.3-36.4-54.4-54.6c-7.6-7.6-15.3-15-23.1-22.7C77.6,87,85.7,79.1,94.3,71c1.2,1.1,2.3,2.1,3.3,3.1
		c24.3,24.2,48.5,48.5,72.7,72.7c14.2,14.2,28.4,15.2,44.2,3.3c8,7.7,15.9,15.4,24.2,23.4C216.2,195.7,193.9,217.6,171.6,239.5z"/>
	<path id="XMLID_92_" class="st0" d="M248.8,183.7c7.6,7.6,14.8,14.9,22.3,22.5c-22.2,21.8-44.5,43.7-66.8,65.5
		c-7.5-7.6-14.8-14.9-22.3-22.6C204.1,227.5,226.4,205.7,248.8,183.7z"/>
	<path id="XMLID_91_" class="st0" d="M84.1,61.6C76.4,69,68.3,76.8,59.9,84.8c-6.3-6.1-12.4-12-18.4-18.1C39.5,64.6,40,62,42,60
		c5.6-5.6,11.2-11.1,16.9-16.6c2.3-2.2,5.1-2.7,7.5-0.3C72.3,49,78.1,55.3,84.1,61.6z"/>
</g>
<path id="XMLID_149_" class="st0" d="M740.4,50.5c8.7,0,17.5,0,26.2,0c1.1,0.2,2.2,0.6,3.4,0.7c22.2,1.8,43.5,7.4,63.9,16.3
	c1.3,0.6,2.6,1.3,4.5,2.3c-0.9,0.5-1.3,0.7-1.6,0.9c-3.6,3.1-4.3,6.9-1.9,10.1c2.5,3.4,6.4,3.8,10.6,1c1.7-1.1,3.3-2.5,5.1-3.4
	c1.1-0.5,2.8-0.7,3.7-0.2c4.2,2.4,8.3,5.1,12.7,8C767.5,170.5,676,262,591.8,361.4c-1.5-2.3-2.6-4.2-4-5.8
	c-4.6-5.4-6.2-10.7-0.2-16.1c0.4-0.3,0.6-0.8,0.8-1.3c1.6-3.3,0.8-6.9-2-8.9c-2.9-2.1-6.5-1.8-9.1,0.7c-0.7,0.7-1.3,1.5-2.2,2.5
	c-0.6-1.1-1-1.8-1.4-2.6c-6.9-15.2-11.9-30.9-14.6-47.3c-1.2-7.3-2.1-14.7-3.1-22.1c0-8.2,0-16.5,0-24.7c0.2-1,0.5-2,0.7-3
	c1.1-7.6,1.7-15.3,3.2-22.9C574.7,132,637.2,69.3,715,54.4C723.3,52.7,731.9,51.8,740.4,50.5z M697.7,203.9c-1.6-2-3-4.4-5-5.7
	c-2.6-1.7-5.5-0.9-7.7,1.3c-3.4,3.3-6.7,6.7-9.9,10.2c-2.9,3.2-2.7,7.6,0.2,10.3c2.9,2.6,6.8,2.5,10-0.6c3.3-3.2,6.5-6.5,9.5-10
	C696,208,696.6,206.2,697.7,203.9z M825.6,92.9c-1.8-2.3-2.9-5-4.9-5.8c-2-0.9-5.2-0.7-7.1,0.4c-4.1,2.3-7.8,5.4-11.5,8.4
	c-3.5,2.7-4.1,6.6-1.8,9.9s6.6,3.9,10.2,1.4c3.8-2.7,7.5-5.4,11.1-8.4C823.1,97.3,824,95.3,825.6,92.9z M709,192.1
	c2.1-0.8,3.7-1,4.7-1.9c4.1-3.7,8.2-7.4,11.9-11.4c2.3-2.5,1.8-6.3-0.4-8.8c-2.4-2.6-6.3-3.4-9-1.1c-4.3,3.6-8.4,7.5-12,11.8
	c-1.2,1.4-1.2,4.9-0.3,6.7C704.7,189.5,707.3,190.7,709,192.1z M668.8,234.8c-1.5-1.9-2.6-4.7-4.5-5.4c-2.1-0.8-5.8-0.8-7.4,0.5
	c-4.2,3.7-8,8-11.2,12.6c-1.2,1.7-0.9,5.5,0.3,7.3c1.1,1.7,4.2,2.9,6.5,2.9C656.4,252.8,667.9,239.4,668.8,234.8z M623.9,286.1
	c2.2-1,4.1-1.4,5-2.5c3.7-4.1,7.2-8.3,10.4-12.8c2-2.8,1-6.8-1.7-8.9c-2.8-2.2-6.7-2.3-9.1,0.4c-3.6,4-7.2,8.1-10,12.6
	c-1.1,1.7-0.9,5.1,0,7.1C619.4,283.8,622.1,284.8,623.9,286.1z M772.2,135.8c0.2-0.2,0.4-0.5,0.6-0.7c0.7-0.2,1.7-0.1,2.2-0.6
	c5-4,10.2-7.7,14.6-12.2c2.3-2.3,1.4-5.9-1-8.3c-2.5-2.4-5.6-2.9-8.4-1c-4.4,3.1-8.5,6.5-12.5,10.1c-2.3,2.1-2.9,5.2-1.2,7.7
	C767.8,132.9,770.3,134.2,772.2,135.8z M732.8,155.5c1.6,2.2,2.7,4.6,4.5,6c2.4,1.9,5.4,1.5,7.8-0.5c3.5-2.9,7-6,10.4-9.1
	c3.3-3,3.6-7.2,1-10.2c-2.7-3.1-6.8-3.3-10.3-0.3c-3.3,2.8-6.7,5.6-9.8,8.7C735.2,151.3,734.3,153.2,732.8,155.5z M599.5,318.7
	c0.8-0.4,2.7-0.6,3.7-1.8c3.7-4.4,7.2-9,10.3-13.8c1.8-2.8,0.4-6.7-2.2-8.5c-2.8-2-6.8-1.8-9.1,0.9c-3.4,4-6.6,8.2-9.4,12.6
	C589.9,312.7,593.4,318.6,599.5,318.7z"/>
<path id="XMLID_139_" class="st0" d="M766.6,445.5c-8.7,0-17.5,0-26.2,0c-1.1-0.2-2.2-0.6-3.4-0.7c-22.5-1.8-44-7.5-64.6-16.6
	c-1.1-0.5-2.1-1.1-3.3-1.8c0.7-0.6,1.1-1,1.5-1.3c3.2-2.9,3.8-6.9,1.6-9.9c-2.4-3.3-6.3-3.7-10.3-1.2c-1.8,1.2-3.5,2.6-5.4,3.6
	c-0.9,0.5-2.4,0.9-3.1,0.5c-4.4-2.6-8.6-5.4-13.3-8.3c99.5-84.3,191-175.8,275.2-275.2c2.8,4.3,5.4,8.1,7.6,12.2
	c0.6,1.2,0.4,3.3-0.2,4.7c-0.8,2-2.4,3.6-3.6,5.5c-2.2,3.5-1.7,7.4,1.1,9.7c3.1,2.5,7,2.1,10-1.1c0.5-0.5,1-1.1,1.7-1.9
	c0.6,1.1,1,1.8,1.4,2.6c6.9,15.2,11.9,30.9,14.6,47.3c1.2,7.3,2.1,14.7,3.1,22c0,8,0,15.9,0,23.9c-0.2,1.2-0.6,2.5-0.7,3.7
	c-1,14.5-3.4,28.9-8.1,42.7c-25.5,75-77.1,120.6-154.7,136.6C780.6,443.9,773.6,444.5,766.6,445.5z M901,202.5
	c0.8-0.4,2.8-1,3.9-2.3c3.4-4,6.5-8.2,9.5-12.6c2.1-3.1,1.1-7.1-1.8-9.2c-3-2.2-6.9-2-9.3,1c-3.3,4-6.6,8.2-9.4,12.6
	C890.8,196.8,894.3,202.7,901,202.5z M816.3,299.1c2.1-0.7,3.6-0.8,4.4-1.6c4.2-4.1,8.4-8.2,12.2-12.7c2.1-2.5,1.1-6.5-1.3-8.7
	c-2.5-2.3-6.2-2.7-8.8-0.3c-4,3.7-8,7.6-11.3,12c-1.2,1.6-1.3,5.1-0.4,7C811.9,296.7,814.6,297.8,816.3,299.1z M805,311.2
	c-1.7-2.1-3-4.5-4.9-5.9c-2.5-1.8-5.5-1-7.7,1.1c-3.3,3-6.5,6.1-9.7,9.3c-3.3,3.3-3.6,7.2-0.8,10.3c2.8,3.1,7.1,3.1,10.6-0.1
	c3.2-3,6.4-5.9,9.3-9.1C803,315.4,803.7,313.6,805,311.2z M709,394.1c-1.7-2.2-2.8-4.9-4.6-5.6c-2.2-0.8-5.4-0.8-7.4,0.4
	c-4.1,2.3-7.7,5.4-11.4,8.4c-3.4,2.7-4,6.6-1.7,9.8c2.4,3.3,6.4,4,10.1,1.3c3.8-2.6,7.5-5.3,11-8.3
	C706.5,398.7,707.4,396.5,709,394.1z M863.2,249.3c-1.6-1.9-2.9-4.7-5-5.5s-5.7-0.4-7.3,1c-4,3.5-7.7,7.6-10.7,12
	c-1.2,1.8-1.1,5.5,0,7.4c1.1,1.8,4.4,3.1,6.7,3.1C850.9,267.5,862.4,254,863.2,249.3z M774.1,340.2c-1.7-2.1-2.8-4.5-4.7-5.8
	c-2.5-1.8-5.4-1.2-7.8,0.8c-3.5,3-7,6-10.4,9.2c-3.1,2.9-3.4,7-0.9,10c2.6,3.1,6.8,3.4,10.3,0.5c3.4-2.9,6.9-5.8,10-9
	C772,344.5,772.7,342.5,774.1,340.2z M722.5,384.8c0.2-0.2,0.5-0.5,0.7-0.7c0.9-0.2,2-0.1,2.6-0.6c4.7-3.7,9.6-7.3,13.9-11.5
	c2.4-2.4,1.8-5.8-0.5-8.4c-2.1-2.5-6-3.3-8.7-1.4c-4.3,3.2-8.7,6.4-12.4,10.3c-1.4,1.5-1.8,5.2-1.1,7.3
	C717.8,381.9,720.6,383.2,722.5,384.8z M882.7,210.1c-2.1,1.1-4,1.5-5,2.6c-3.5,3.9-6.9,8-10,12.2c-2.1,2.8-1.2,6.8,1.5,9
	c2.8,2.3,6.6,2.4,9.1-0.3c3.6-3.9,7.1-7.9,9.9-12.3c1.1-1.7,0.9-5.1-0.1-7.1C887.3,212.4,884.6,211.5,882.7,210.1z"/>
<path id="XMLID_97_" class="st0" d="M898.5,114c2.5,2.8,5.1,5.8,8,9.1c-84.8,100.5-177.4,193-277.9,278c-3.3-2.9-6.3-5.6-9.2-8.1
	C712.5,300,805.4,207.1,898.5,114z"/>
<path id="XMLID_96_" class="st0" d="M608.3,381.8c-2.3-2.5-4.9-5.5-7.9-8.9c84.8-100.5,177.3-193,278-278c3.2,2.8,6.2,5.4,9,7.9
	C794.4,195.8,701.6,288.7,608.3,381.8z"/>
</svg>
