<?xml version="1.0" encoding="utf-8"?>
<!-- Generator: Adobe Illustrator 19.0.0, SVG Export Plug-In . SVG Version: 6.00 Build 0)  -->
<svg version="1.1" id="Layer_3" xmlns="http://www.w3.org/2000/svg" xmlns:xlink="http://www.w3.org/1999/xlink" x="0px" y="0px"
	 viewBox="0 0 1000 500" style="enable-background:new 0 0 1000 500;" xml:space="preserve">
<style type="text/css">
	.st0{fill:#C55A28;}
</style>
<g id="XMLID_1_">
	<path id="XMLID_149_" class="st0" d="M486.9,52.5c8.7,0,17.5,0,26.2,0c1.1,0.2,2.2,0.6,3.4,0.7c22.2,1.8,43.5,7.4,63.9,16.3
		c1.3,0.6,2.6,1.3,4.5,2.3c-0.9,0.5-1.3,0.7-1.6,0.9c-3.6,3.1-4.3,6.9-1.9,10.1c2.5,3.4,6.4,3.8,10.6,1c1.7-1.1,3.3-2.5,5.1-3.4
		c1.1-0.5,2.8-0.7,3.7-0.2c4.2,2.4,8.3,5.1,12.7,8C514,172.5,422.5,264,338.3,363.4c-1.5-2.3-2.6-4.2-4-5.8
		c-4.6-5.4-6.2-10.7-0.2-16.1c0.4-0.3,0.6-0.8,0.8-1.3c1.6-3.3,0.8-6.9-2-8.9c-2.9-2.1-6.5-1.8-9.1,0.7c-0.7,0.7-1.3,1.5-2.2,2.5
		c-0.6-1.1-1-1.8-1.4-2.6c-6.9-15.2-11.9-30.9-14.6-47.3c-1.2-7.3-2.1-14.7-3.1-22.1c0-8.2,0-16.5,0-24.7c0.2-1,0.5-2,0.7-3
		c1.1-7.6,1.7-15.3,3.2-22.9c14.7-77.9,77.3-140.7,155-155.6C469.8,54.7,478.4,53.8,486.9,52.5z M444.3,205.9c-1.6-2-3-4.4-5-5.7
		c-2.6-1.7-5.5-0.9-7.7,1.3c-3.4,3.3-6.7,6.7-9.9,10.2c-2.9,3.2-2.7,7.6,0.2,10.3c2.9,2.6,6.8,2.5,10-0.6c3.3-3.2,6.5-6.5,9.5-10
		C442.5,210,443.1,208.2,444.3,205.9z M572.1,94.9c-1.8-2.3-2.9-5-4.9-5.8c-2-0.9-5.2-0.7-7.1,0.4c-4.1,2.3-7.8,5.4-11.5,8.4
		c-3.5,2.7-4.1,6.6-1.8,9.9s6.6,3.9,10.2,1.4c3.8-2.7,7.5-5.4,11.1-8.4C569.6,99.4,570.5,97.3,572.1,94.9z M455.5,194.1
		c2.1-0.8,3.7-1,4.7-1.9c4.1-3.7,8.2-7.4,11.9-11.4c2.3-2.5,1.8-6.3-0.4-8.8c-2.4-2.6-6.3-3.4-9-1.1c-4.3,3.6-8.4,7.5-12,11.8
		c-1.2,1.4-1.2,4.9-0.3,6.7C451.2,191.5,453.8,192.7,455.5,194.1z M415.3,236.8c-1.5-1.9-2.6-4.7-4.5-5.4c-2.1-0.8-5.8-0.8-7.4,0.5
		c-4.2,3.7-8,8-11.2,12.6c-1.2,1.7-0.9,5.5,0.3,7.3c1.1,1.7,4.2,2.9,6.5,2.9C402.9,254.9,414.4,241.4,415.3,236.8z M370.4,288.1
		c2.2-1,4.1-1.4,5-2.5c3.7-4.1,7.2-8.3,10.4-12.8c2-2.8,1-6.8-1.7-8.9c-2.8-2.2-6.7-2.3-9.1,0.4c-3.6,4-7.2,8.1-10,12.6
		c-1.1,1.7-0.9,5.1,0,7.1C366,285.8,368.6,286.8,370.4,288.1z M518.7,137.8c0.2-0.2,0.4-0.5,0.6-0.7c0.7-0.2,1.7-0.1,2.2-0.6
		c5-4,10.2-7.7,14.6-12.2c2.3-2.3,1.4-5.9-1-8.3c-2.5-2.4-5.6-2.9-8.4-1c-4.4,3.1-8.5,6.5-12.5,10.1c-2.3,2.1-2.9,5.2-1.2,7.7
		C514.4,134.9,516.8,136.2,518.7,137.8z M479.3,157.5c1.6,2.2,2.7,4.6,4.5,6c2.4,1.9,5.4,1.5,7.8-0.5c3.5-2.9,7-6,10.4-9.1
		c3.3-3,3.6-7.2,1-10.2c-2.7-3.1-6.8-3.3-10.3-0.3c-3.3,2.8-6.7,5.6-9.8,8.7C481.7,153.3,480.9,155.2,479.3,157.5z M346,320.7
		c0.8-0.4,2.7-0.6,3.7-1.8c3.7-4.4,7.2-9,10.3-13.8c1.8-2.8,0.4-6.7-2.2-8.5c-2.8-2-6.8-1.8-9.1,0.9c-3.4,4-6.6,8.2-9.4,12.6
		C336.4,314.7,339.9,320.6,346,320.7z"/>
	<path id="XMLID_139_" class="st0" d="M513.1,447.5c-8.7,0-17.5,0-26.2,0c-1.1-0.2-2.2-0.6-3.4-0.7c-22.5-1.8-44-7.5-64.6-16.6
		c-1.1-0.5-2.1-1.1-3.3-1.8c0.7-0.6,1.1-1,1.5-1.3c3.2-2.9,3.8-6.9,1.6-9.9c-2.4-3.3-6.3-3.7-10.3-1.2c-1.8,1.2-3.5,2.6-5.4,3.6
		c-0.9,0.5-2.4,0.9-3.1,0.5c-4.4-2.6-8.6-5.4-13.3-8.3c99.5-84.3,191-175.8,275.2-275.2c2.8,4.3,5.4,8.1,7.6,12.2
		c0.6,1.2,0.4,3.3-0.2,4.7c-0.8,2-2.4,3.6-3.6,5.5c-2.2,3.5-1.7,7.4,1.1,9.7c3.1,2.5,7,2.1,10-1.1c0.5-0.5,1-1.1,1.7-1.9
		c0.6,1.1,1,1.8,1.4,2.6c6.9,15.2,11.9,30.9,14.6,47.3c1.2,7.3,2.1,14.7,3.1,22c0,8,0,15.9,0,23.9c-0.2,1.2-0.6,2.5-0.7,3.7
		c-1,14.5-3.4,28.9-8.1,42.7c-25.5,75-77.1,120.6-154.7,136.6C527.1,445.9,520.1,446.5,513.1,447.5z M647.5,204.5
		c0.8-0.4,2.8-1,3.9-2.3c3.4-4,6.5-8.2,9.5-12.6c2.1-3.1,1.1-7.1-1.8-9.2c-3-2.2-6.9-2-9.3,1c-3.3,4-6.6,8.2-9.4,12.6
		C637.3,198.8,640.8,204.7,647.5,204.5z M562.8,301.1c2.1-0.7,3.6-0.8,4.4-1.6c4.2-4.1,8.4-8.2,12.2-12.7c2.1-2.5,1.1-6.5-1.3-8.7
		c-2.5-2.3-6.2-2.7-8.8-0.3c-4,3.7-8,7.6-11.3,12c-1.2,1.6-1.3,5.1-0.4,7C558.4,298.7,561.2,299.8,562.8,301.1z M551.5,313.3
		c-1.7-2.1-3-4.5-4.9-5.9c-2.5-1.8-5.5-1-7.7,1.1c-3.3,3-6.5,6.1-9.7,9.3c-3.3,3.3-3.6,7.2-0.8,10.3c2.8,3.1,7.1,3.1,10.6-0.1
		c3.2-3,6.4-5.9,9.3-9.1C549.5,317.4,550.2,315.6,551.5,313.3z M455.5,396.1c-1.7-2.2-2.8-4.9-4.6-5.6c-2.2-0.8-5.4-0.8-7.4,0.4
		c-4.1,2.3-7.7,5.4-11.4,8.4c-3.4,2.7-4,6.6-1.7,9.8c2.4,3.3,6.4,4,10.1,1.3c3.8-2.6,7.5-5.3,11-8.3
		C453,400.7,453.9,398.5,455.5,396.1z M609.7,251.4c-1.6-1.9-2.9-4.7-5-5.5s-5.7-0.4-7.3,1c-4,3.5-7.7,7.6-10.7,12
		c-1.2,1.8-1.1,5.5,0,7.4c1.1,1.8,4.4,3.1,6.7,3.1C597.4,269.5,608.9,256,609.7,251.4z M520.6,342.2c-1.7-2.1-2.8-4.5-4.7-5.8
		c-2.5-1.8-5.4-1.2-7.8,0.8c-3.5,3-7,6-10.4,9.2c-3.1,2.9-3.4,7-0.9,10c2.6,3.1,6.8,3.4,10.3,0.5c3.4-2.9,6.9-5.8,10-9
		C518.5,346.5,519.2,344.5,520.6,342.2z M469.1,386.8c0.2-0.2,0.5-0.5,0.7-0.7c0.9-0.2,2-0.1,2.6-0.6c4.7-3.7,9.6-7.3,13.9-11.5
		c2.4-2.4,1.8-5.8-0.5-8.4c-2.1-2.5-6-3.3-8.7-1.4c-4.3,3.2-8.7,6.4-12.4,10.3c-1.4,1.5-1.8,5.2-1.1,7.3
		C464.3,383.9,467.2,385.2,469.1,386.8z M629.2,212.1c-2.1,1.1-4,1.5-5,2.6c-3.5,3.9-6.9,8-10,12.2c-2.1,2.8-1.2,6.8,1.5,9
		c2.8,2.3,6.6,2.4,9.1-0.3c3.6-3.9,7.1-7.9,9.9-12.3c1.1-1.7,0.9-5.1-0.1-7.1C633.8,214.4,631.1,213.5,629.2,212.1z"/>
	<path id="XMLID_97_" class="st0" d="M645.1,116c2.5,2.8,5.1,5.8,8,9.1c-84.8,100.5-177.4,193-277.9,278c-3.3-2.9-6.3-5.6-9.2-8.1
		C459,302,551.9,209.1,645.1,116z"/>
	<path id="XMLID_96_" class="st0" d="M354.8,383.8c-2.3-2.5-4.9-5.5-7.9-8.9c84.8-100.5,177.3-193,278-278c3.2,2.8,6.2,5.4,9,7.9
		C540.9,197.8,448.1,290.7,354.8,383.8z"/>
</g>
</svg>
