<?xml version="1.0" encoding="utf-8"?>
<!-- Generator: Adobe Illustrator 19.0.0, SVG Export Plug-In . SVG Version: 6.00 Build 0)  -->
<svg version="1.1" id="Layer_3" xmlns="http://www.w3.org/2000/svg" xmlns:xlink="http://www.w3.org/1999/xlink" x="0px" y="0px"
	 viewBox="0 0 1000 500" style="enable-background:new 0 0 1000 500;" xml:space="preserve">
<style type="text/css">
	.st0{fill:#C55A28;}
</style>
<g id="XMLID_46_">
	<path id="XMLID_45_" class="st0" d="M577.4,94.2c12.9,0,25.7,0,38.7,0c0,122.5,0,244.7,0,367.1c-12.9,0-25.6,0-38.7,0
		C577.4,339.1,577.4,216.8,577.4,94.2z"/>
	<path id="XMLID_44_" class="st0" d="M418.4,94.3c0,122.3,0,244.5,0,367c-12.9,0-25.5,0-38.6,0c0-122.3,0-244.5,0-367
		C392.6,94.3,405.3,94.3,418.4,94.3z"/>
	<path id="XMLID_43_" class="st0" d="M517.2,461.4c-13.2,0-25.9,0-38.9,0c0-66.4,0-132.5,0-199c8.6-2.1,16.4-5.8,23.2-11.7
		c6.7-5.8,11.7-13,15.7-22.2C517.2,306.9,517.2,384,517.2,461.4z"/>
	<path id="XMLID_42_" class="st0" d="M415.8,59.2c-5.3,0-10.8,0.4-16.1-0.2c-2.3-0.2-5.1-2-6.2-3.9c-0.9-1.5-0.4-4.8,0.7-6.4
		c1-1.5,3.7-2.4,5.7-2.5c5.3-0.3,10.6-0.1,16.1-0.1c0.2-2.5,0.4-4.7,0.7-7.5c8.5,0,17,0,25.5,0c8.4,0,16.8,0,24.9,0
		c0.4,0.5,0.6,0.7,0.7,0.9c0.6,6.6,0.6,6.5,7.5,6.5c15.4,0,30.8,0,46.2,0c1.6,0,3.3,0,5.2,0c0.2-2.6,0.3-4.8,0.4-7.2
		c17.1,0,34.1,0,51.4,0c0.1,2.3,0.3,4.4,0.4,7.2c1.6,0,3,0,4.5,0c9.7,0,19.3,0,29,0c4.9,0,7.8,2.7,7.8,6.8s-2.9,6.5-8,6.5
		c-9.5,0-19,0-28.5,0c-1.5,0-3,0-4.7,0c-0.2,2.7-0.3,4.8-0.4,7.3c-17.2,0-34.1,0-51.4,0c-0.1-2.3-0.3-4.5-0.4-7.3c-1.6,0-3,0-4.5,0
		c-15.7,0-31.3,0-47,0c-6.7,0-6.7,0-7.5,6.8c-1.5,0.1-3.1,0.3-4.7,0.3c-12.7,0-25.5,0-38.2,0C417.2,66.5,417.2,66.5,415.8,59.2z"/>
	<path id="XMLID_41_" class="st0" d="M502.3,211c-0.1,19.5-15.8,35-35.5,34.8c-19.2-0.1-34.8-15.9-34.8-35.2c0-19.1,16.1-35,35.1-35
		C486.8,175.7,502.4,191.4,502.3,211z"/>
	<path id="XMLID_40_" class="st0" d="M478.4,94.2c13,0,25.8,0,38.8,0c0,32.6,0,64.9,0,97.4c-13-21.6-19-26.7-38.8-32.9
		C478.4,137.4,478.4,115.9,478.4,94.2z"/>
</g>
</svg>
