<?xml version="1.0" encoding="utf-8"?>
<!-- Generator: Adobe Illustrator 19.0.0, SVG Export Plug-In . SVG Version: 6.00 Build 0)  -->
<svg version="1.1" id="Layer_1" xmlns="http://www.w3.org/2000/svg" xmlns:xlink="http://www.w3.org/1999/xlink" x="0px" y="0px"
	 viewBox="0 0 1000 500" style="enable-background:new 0 0 1000 500;" xml:space="preserve">
<style type="text/css">
	.st0{fill:#C55A28;}
</style>
<g id="XMLID_46_">
	<path id="XMLID_45_" class="st0" d="M328.4,92.5c12.9,0,25.7,0,38.7,0c0,122.5,0,244.7,0,367.1c-12.9,0-25.6,0-38.7,0
		C328.4,337.4,328.4,215.1,328.4,92.5z"/>
	<path id="XMLID_44_" class="st0" d="M169.3,92.6c0,122.3,0,244.5,0,367c-12.9,0-25.5,0-38.6,0c0-122.3,0-244.5,0-367
		C143.5,92.6,156.3,92.6,169.3,92.6z"/>
	<path id="XMLID_43_" class="st0" d="M268.2,459.7c-13.2,0-25.9,0-38.9,0c0-66.4,0-132.5,0-199c8.6-2.1,16.4-5.8,23.2-11.7
		c6.7-5.8,11.7-13,15.7-22.2C268.2,305.2,268.2,382.3,268.2,459.7z"/>
	<path id="XMLID_42_" class="st0" d="M166.7,57.5c-5.3,0-10.8,0.4-16.1-0.2c-2.3-0.2-5.1-2-6.2-3.9c-0.9-1.5-0.4-4.8,0.7-6.4
		c1-1.5,3.7-2.4,5.7-2.5c5.3-0.3,10.6-0.1,16.1-0.1c0.2-2.5,0.4-4.7,0.7-7.5c8.5,0,17,0,25.5,0c8.4,0,16.8,0,24.9,0
		c0.4,0.5,0.6,0.7,0.7,0.9c0.6,6.6,0.6,6.5,7.5,6.5c15.4,0,30.8,0,46.2,0c1.6,0,3.3,0,5.2,0c0.2-2.6,0.3-4.8,0.4-7.2
		c17.1,0,34.1,0,51.4,0c0.1,2.3,0.3,4.4,0.4,7.2c1.6,0,3,0,4.5,0c9.7,0,19.3,0,29,0c4.9,0,7.8,2.7,7.8,6.8s-2.9,6.5-8,6.5
		c-9.5,0-19,0-28.5,0c-1.5,0-3,0-4.7,0c-0.2,2.7-0.3,4.8-0.4,7.3c-17.2,0-34.1,0-51.4,0c-0.1-2.3-0.3-4.5-0.4-7.3c-1.6,0-3,0-4.5,0
		c-15.7,0-31.3,0-47,0c-6.7,0-6.7,0-7.5,6.8c-1.5,0.1-3.1,0.3-4.7,0.3c-12.7,0-25.5,0-38.2,0C168.2,64.8,168.2,64.8,166.7,57.5z"/>
	<path id="XMLID_41_" class="st0" d="M253.2,209.3c-0.1,19.5-15.8,35-35.5,34.8c-19.2-0.1-34.8-15.9-34.8-35.2
		c0-19.1,16.1-35,35.1-35C237.7,174,253.3,189.7,253.2,209.3z"/>
	<path id="XMLID_40_" class="st0" d="M229.3,92.5c13,0,25.8,0,38.8,0c0,32.6,0,64.9,0,97.4c-13-21.6-19-26.7-38.8-32.9
		C229.3,135.7,229.3,114.2,229.3,92.5z"/>
</g>
<g id="XMLID_55_">
	<path id="XMLID_64_" class="st0" d="M719.3,282.5c21.8-21.2,43.2-42.2,65-63.4c9.7,9.7,19.2,19.3,28.7,28.9
		c45.7,45.8,91.3,91.6,137.1,137.3c4.8,4.8,7.9,9.9,5.4,16.8c-0.8,2.3-2.3,4.6-4,6.3c-14.2,14-28.4,28-42.7,41.9
		c-6.9,6.7-15.5,6.7-22.1,0C831.4,395,776.2,339.6,721,284.3C720.4,283.8,720,283.3,719.3,282.5z"/>
	<path id="XMLID_63_" class="st0" d="M678.3,241.6c-7.7-7.8-15.3-15.4-22.1-22.3c2.4-5.8,5.7-11.2,6.9-17c2-9.8-1.7-18.3-8.9-25.4
		c-17.6-17.5-35-35.1-52.5-52.6c-7.3-7.3-14.7-14.4-22.3-21.9c8.3-8,16.2-15.5,24.4-23.4c1.2,1.1,2.2,2,3.2,3
		c23.4,23.4,46.8,46.8,70.1,70.1c13.7,13.7,27.4,14.7,42.6,3.2c7.7,7.4,15.3,14.8,23.4,22.6C721.4,199.4,699.9,220.5,678.3,241.6z"
		/>
	<path id="XMLID_59_" class="st0" d="M752.8,187.8c7.3,7.4,14.2,14.4,21.5,21.7c-21.4,21-43,42.1-64.4,63.2
		c-7.2-7.3-14.2-14.4-21.5-21.7C709.7,230.1,731.2,209.1,752.8,187.8z"/>
	<path id="XMLID_57_" class="st0" d="M594,70.1c-7.4,7.1-15.2,14.6-23.3,22.3c-6-5.9-12-11.6-17.7-17.5c-1.9-2-1.5-4.5,0.5-6.5
		c5.4-5.4,10.8-10.7,16.3-16c2.2-2.1,4.9-2.6,7.2-0.3C582.7,58,588.2,64,594,70.1z"/>
</g>
</svg>
